<mxfile host="65bd71144e">
    <diagram id="p9pbBcPPxyR1dDtkJxpm" name="Página-1">
        <mxGraphModel dx="579" dy="513" grid="1" gridSize="10" guides="1" tooltips="1" connect="1" arrows="1" fold="1" page="1" pageScale="1" pageWidth="827" pageHeight="1169" math="0" shadow="0">
            <root>
                <mxCell id="0"/>
                <mxCell id="1" parent="0"/>
                <mxCell id="2" value="diagrama entidad-relacion.&lt;br&gt;&lt;br&gt;collar&lt;br&gt;&lt;br&gt;personas que se olvidan cosas,eventos, etc.&lt;br&gt;&lt;br&gt;crecion de recordatorios.&lt;br&gt;&lt;br&gt;encargar de preguntar y ser asertivos.&lt;br&gt;&lt;br&gt;tiempo prolongado dentro de 2 a 3 horas despues del olvido.&lt;br&gt;&lt;br&gt;sustentar la base del reconocimiento por voz.&lt;br&gt;&lt;br&gt;remplazar la bateria convencional de recargar o usar pilas de bateria por sensores de proximidad por telefono o dispositivo de carga.&lt;br&gt;&lt;br&gt;enfacis en dar ejecuciones por voz o manualmente mediante conputadora, e incluso algun panel tactil.&lt;br&gt;&lt;br&gt;diseño de software tener colores atenuados al verde, celste o azul, escala de grices." style="rounded=0;whiteSpace=wrap;html=1;" vertex="1" parent="1">
                    <mxGeometry x="220" y="610" width="330" height="120" as="geometry"/>
                </mxCell>
                <mxCell id="3" value="diagrama entidad-relacion." style="rounded=0;whiteSpace=wrap;html=1;" vertex="1" parent="1">
                    <mxGeometry x="320" width="120" height="60" as="geometry"/>
                </mxCell>
                <mxCell id="6" style="edgeStyle=none;html=1;entryX=1;entryY=0.5;entryDx=0;entryDy=0;" edge="1" parent="1" source="4" target="5">
                    <mxGeometry relative="1" as="geometry"/>
                </mxCell>
                <mxCell id="8" style="edgeStyle=none;html=1;entryX=0;entryY=0.5;entryDx=0;entryDy=0;" edge="1" parent="1" source="4" target="7">
                    <mxGeometry relative="1" as="geometry"/>
                </mxCell>
                <mxCell id="4" value="collar" style="shape=parallelogram;perimeter=parallelogramPerimeter;whiteSpace=wrap;html=1;fixedSize=1;" vertex="1" parent="1">
                    <mxGeometry x="320" y="240" width="120" height="60" as="geometry"/>
                </mxCell>
                <mxCell id="10" style="edgeStyle=none;html=1;entryX=0.5;entryY=0;entryDx=0;entryDy=0;" edge="1" parent="1" source="5" target="9">
                    <mxGeometry relative="1" as="geometry"/>
                </mxCell>
                <mxCell id="5" value="personas que se olvidan cosas,eventos, etc." style="shape=parallelogram;perimeter=parallelogramPerimeter;whiteSpace=wrap;html=1;fixedSize=1;" vertex="1" parent="1">
                    <mxGeometry x="105" y="240" width="160" height="60" as="geometry"/>
                </mxCell>
                <mxCell id="7" value="crecion de recordatorios." style="shape=parallelogram;perimeter=parallelogramPerimeter;whiteSpace=wrap;html=1;fixedSize=1;" vertex="1" parent="1">
                    <mxGeometry x="530" y="240" width="120" height="60" as="geometry"/>
                </mxCell>
                <mxCell id="9" value="personas con sintomas de&amp;nbsp;alzheimer, o con memoria de corto plaso." style="shape=parallelogram;perimeter=parallelogramPerimeter;whiteSpace=wrap;html=1;fixedSize=1;" vertex="1" parent="1">
                    <mxGeometry x="65" y="340" width="190" height="70" as="geometry"/>
                </mxCell>
                <mxCell id="12" style="edgeStyle=none;html=1;entryX=0.5;entryY=0;entryDx=0;entryDy=0;" edge="1" parent="1" source="11" target="4">
                    <mxGeometry relative="1" as="geometry"/>
                </mxCell>
                <mxCell id="13" style="edgeStyle=none;html=1;entryX=0.5;entryY=1;entryDx=0;entryDy=0;" edge="1" parent="1" source="11" target="3">
                    <mxGeometry relative="1" as="geometry"/>
                </mxCell>
                <mxCell id="11" value="progeto alerta" style="rhombus;whiteSpace=wrap;html=1;" vertex="1" parent="1">
                    <mxGeometry x="330" y="100" width="100" height="80" as="geometry"/>
                </mxCell>
            </root>
        </mxGraphModel>
    </diagram>
</mxfile>